<svg id="Layer_1" data-name="Layer 1" xmlns="http://www.w3.org/2000/svg" viewBox="0 0 702.9077 1377.7748"><defs><style>.cls-1{fill:#fff;}</style></defs><title>The-Filth-Finder</title><path class="cls-1" d="M1,1.05H703.9077V1378.825H1ZM311.4152,1324.0278c11.0988,1.3106,23.27,3.198,35.514,4.052,9.9014.6907,19.8963.32,29.8331-.04,1.722-.0625,4.5325-2.265,4.7278-3.7556.2208-1.6851-1.5719-4.155-3.1737-5.4088-1.5611-1.2221-3.9517-1.56-6.0409-1.8958-4.4242-.7107-8.9174-1.0035-13.332-1.7608-9.64-1.6536-19.186-4.3135-28.8854-5.0524-13.3445-1.0164-22.6593-8.705-31.9784-16.7747a7.6693,7.6693,0,0,1-2.0334-4.4039c-.8286-5.414-1.3784-10.871-2.0264-16.3125-.8817-7.4035-1.7172-14.8127-2.6477-22.21-.6156-4.8943-1.6022-9.7529-1.9916-14.6617-.4947-6.2355.1219-12.6206-.9209-18.74-3.7446-21.9731-8.0023-43.9307-7.3019-66.3009.5619-17.9446,2.695-35.8344,3.7732-53.77,1.5885-26.4262,2.7575-52.8773,4.3145-79.3055.6355-10.7863,2.091-21.5255,2.6813-32.3131.6887-12.586,1.232-25.2053,1.1089-37.8031-.1151-11.7807-1.8889-23.5637-1.6954-35.3254.4816-29.2643,1.6774-58.5167,2.5684-87.7745.6994-22.9678,1.302-45.939,2.1027-68.9032.2141-6.1415,1.7361-6.8373,7.87-6.4143a129.7048,129.7048,0,0,0,17.3415-.1c4.79-.3133,9.53-1.3585,14.2986-2.03,16.1933-2.2808,29.9117-8.2193,37.72-23.9414,12.8358-25.8451,19.18-53.618,24.7988-81.6228,1.8228-9.0845,1.8525-18.8434,5.3125-27.2152,6.0684-14.683,4.343-29.3314,3.2513-44.2058-1.1544-15.7293-2.4858-31.448-3.3947-47.1912-.281-4.8669,1.7136-5.9862,6.2853-4.35a39.7486,39.7486,0,0,1,18.3173,13.2851c10.4312,13.3739,16.43,28.7274,20.43,44.988,5.01,20.3651,10.011,40.79,8.2985,62.0029-1.58,19.5665-3.8362,39.0773-5.581,58.6317a150.122,150.122,0,0,1-13.3081,50.76,333.9368,333.9368,0,0,0-14.9843,37.8162c-2.3,7.0743-3.8046,15.1791-2.752,22.3938,1.641,11.2474,7.1862,21.9162,4.6683,33.8023a8.3032,8.3032,0,0,0,.2228,2.4791c.9472,8.5793,5.8532,10.667,13.0291,5.9382a12.3507,12.3507,0,0,1,7.0924-1.514c4.05.2319,7.1288-.4263,8.9979-4.5,1.711-3.729,4.6323-7.07,5.58-10.935.956-3.8986,1.2891-8.784-.3362-12.1642-.9556-1.9874-6.2189-2.23-9.6163-2.6005-2.2125-.2413-4.5611.6616-6.8358,1.1165-3.9718.7946-6.4548-.7506-8.5426-4.258-4.633-7.7834-5.8777-16.2686-3.4364-24.5459,3.8813-13.1593,9.2376-25.8755,13.567-38.9129,4.4913-13.5246,9.5713-26.9892,12.4231-40.8845,2.8254-13.7669,3.6789-28.0092,4.5171-42.0954,1.0756-18.0771,2.1949-36.2358,1.62-54.306-.7571-23.7812-6.9452-46.63-17.0808-68.1483-7.727-16.4048-17.9941-30.8226-36.615-36.5638-2.6427-.8148-3.2223-2.3009-2.4629-4.9228,3.8495-13.29,7.4033-26.668,11.4136-39.9083,1.6766-5.5353,4.3928-10.7471,6.3312-16.2142,1.8816-5.3066,4.596-10.7266,4.708-16.1431.125-6.0447,2.1875-10.93,4.7385-15.9243,1.3587-2.66,3.2524-5.0756,4.3725-7.8188.6513-1.5949,1.0137-4.3265.1339-5.2782-1.1834-1.28-3.7368-1.9132-5.6171-1.7624-2.0393.1635-3.97,1.5734-5.9668,2.3927-11.0323,4.5254-21.9952,5.3461-32.4355-1.4353-7.5549-4.9072-7.8264-12.6412-.0775-17.2337,6.9091-4.0948,14.6658-6.7622,22.0576-10.0388,3.7659-1.6694,6.7083-.83,8.9076,2.7883,2.1746,3.5779,5.2539,4.8037,9.3636,3.312,2.169-.7873,4.5193-1.0675,6.705-1.8176,9.6765-3.3208,12.1688-8.58,7.944-18.0253-1.9984-4.4679-.5416-6.6265,3.4031-8.5183.6126.9144,1.0638,1.5955,1.5225,2.2714,5.3335,7.86,11.1523,8.59,18.0832,2.2624,1.3537-1.2359,2.6687-2.5142,4.0239-3.7485,8.0778-7.3568,8.1793-7.4518.5647-15.2246-2.8586-2.9181-2.616-4.9149-.014-7.9267,5.7513-6.657,11.6968-13.2883,16.424-20.66,12.65-19.7279,25.0691-39.626,36.8536-59.8792A124.3747,124.3747,0,0,1,557.2568,217.88a127.5675,127.5675,0,0,0,10.9881-10.9026q34.0681-36.8809,68.051-73.8406a39.6975,39.6975,0,0,1,3.7884-3.3031c2.4642,2.3554,4.3027,5.5576,6.3916,5.73,2.4111.1994,5.0433-2.2728,6.9762-3.2728,2.57,3.4762,4.6608,6.7661,7.23,9.6269,1.9139,2.1315,4.735,3.4517,6.6332,5.5933,2.6344,2.9725,4.5961,6.541,7.2275,9.5168,1.1147,1.2608,3.1987,1.6643,4.8422,2.4575q.5657-.7268,1.1311-1.4536c-3.448-8.7035-6.6835-17.8572-13.5257-24.3455a24.0551,24.0551,0,0,1-6.6905-9.4816c-1.7855-4.8022-3.9814-5.3054-8.4206-2.7112a28.2782,28.2782,0,0,1-4.0979,1.6292l-1.1383-1.15c1.2238-2.5643,2.1179-5.3634,3.7415-7.643,3.1631-4.4413,4.4133-4.2789,7.1071.5266,1.9724,3.5188,4.336,4.376,7.64,1.7106,2.2638-1.8263,4.6009-3.5617,7.3135-5.6524.5164,6.6194.9279,12.531,1.4558,18.4323.3438,3.8415,3.0539,4.9764,6.35,4.7844,2.6737-.1558,4.0181-2.3713,1.8024-3.9193-4.5872-3.2047-2.9151-7.1852-2.4838-11.1539.3956-3.6416,1.2112-7.294,1.0875-10.9159-.0826-2.4175-.8678-6.0952-2.4574-6.8488-1.9424-.9208-5.2213.2309-7.6143,1.2263-2.21.9194-4.0142,2.8166-6.2119,4.4421-2.76-6.2809-1.2373-11.1248,2.97-15.7466,2.1073-2.3149,4.7562-5.3287,4.8307-8.0893.2752-10.1932.5592-10.6048,10.6793-11.9175,3.6687-.4759,8.1675-1.7754,10.39-4.3421,2.76-3.1875,3.8807-7.9849,5.1076-12.26,1.3739-4.7866-.4839-8.9938-4.3236-11.9346a10.0457,10.0457,0,0,0-12.5881-.1871c-3.6474,2.706-7.4712,6-9.4719,9.9256-4.0391,7.9241-11.1656,7.2-17.266,6.159-3.258-.556-5.71-5.8362-8.5254-8.9843l1.12-1.1823c.9326.1128,1.8739.1786,2.7965.3466,4.114.75,6.9477-.1757,7.1111-5.062a12.809,12.809,0,0,1,.95-3.3424c3.41-10.4581-.1363-19.5632-5.5954-28.243-.4956-.7879-1.7673-1.0876-4.1933-2.4892.6931,4.7206,1.0818,8.05,1.6922,11.3379.64,3.4449,1.4922,6.85,2.26,10.31-7.4384,1.2192-7.5524,1.417-5.937,8.9652l-5.45,1.096c0,2.1171-.3746,4.1876.0747,6.06,1.0706,4.4621,2.53,8.8308,3.837,13.2505-9.7194,4.6085-16.8673,1.59-21.3309-9.1377,2.165.29,4.3072.4959,6.4186.8743,6.0365,1.082,7.7394-.8839,6.2-7.0519-.47-1.8839-1.5026-4.8642-.6816-5.629,4.6707-4.3505,2.96-10.3515,4.5483-15.4325,1.42-4.5427-3.2627-12.9461-7.882-14.7515V25.2933c-.9949-.4612-.9479-1.2-1.2943-1.5533-1.3637-1.3911-2.851-2.6611-4.2924-3.976-.9987,1.678-2.9742,3.458-2.8117,5.0148.4757,4.5594,1.766,9.0384,2.8127,13.5314.4922,2.1131,1.1573,4.1859,2.0073,7.2149-3.1516-1.1963-5.1346-1.9922-7.1474-2.7042-4.3147-1.5261-6.881.5722-5.9753,5.0678a18.7241,18.7241,0,0,0,2.1556,5.4425c2.2669,3.9758,4.7392,7.8346,8.0163,13.1923-7.1425,1.5352-13.1639,2.8358-19.1886,4.12-1.73.3688-3.5926.4044-5.1827,1.0864-6.2109,2.6638-12.2217,5.8225-18.5137,8.2644C547.1285,93.8,511.4229,107.2612,475.9359,121.2776c-9.6658,3.8177-18.7345,9.1474-28.7578,14.121-2.3835-6.5715-4.4195-13.0183-7.0615-19.2064-2.1189-4.9627-4.1974-10.2788-7.64-14.2794-12.25-14.2354-28.7909-19.724-46.9565-20.8793-12.8331-.8162-24.0941,3.1124-32.4436,13.2738-5.7979,7.0561-11.3087,14.3746-16.56,21.8484-13.3964,19.0656-14.5045,40.2215-11.0067,62.4761,1.7127,10.8966,9.6612,19.66,9.0314,31.4558-.2091,3.9166-1.753,4.6011-3.7945,5.3511-8.5571,3.1437-17.4908,5.3648-25.8247,8.9868-9.7688,4.2457-16.0087,2.4772-23.0557-6.197-12.928-15.913-30.07-25.5363-51.4751-23.0044a269.7709,269.7709,0,0,0-38.0641,7.5107c-9.3392,2.5058-19.4135,5.254-26.9542,10.8613-15.8327,11.7731-24.6957,28.7231-28.3473,48.1729a108.992,108.992,0,0,0-1.8422,14.8009c-.3045,6.3092-1.1186,12.8717.1594,18.93,4.8707,23.09,19.8673,36.4494,42.5175,41.5894,9.552,2.1676,9.7083,2.2359,6.0723,11.7383-.0592.1549-.0837.3229-.142.4782-4.9265,13.132-10.8649,25.9193-12.2556,40.1907-.2541,2.6071-2.7586,7.0307-4.4393,7.1345-11.4139.7052-21.7526,5.15-32.4069,8.3958-5.318,1.62-11.7142,2.9782-15.2181,6.7116-15.6074,16.6293-23.7426,36.9934-22.2456,59.7076a123.8432,123.8432,0,0,0,27.7586,71.2722c1.9907,2.45,3.6846,5.14,5.5613,7.6849,2.46,3.3362,1.9954,6.3687.1975,10.078-5.3359,11.0093-10.19,22.2538-15.1227,33.4545a14.6849,14.6849,0,0,0-.6758,4.3923C113.3081,614.7836,117,630.745,119.4652,646.82c.398,2.596.7849,5.1938,1.3275,8.7881-2.5748-1.3951-3.9266-2.0059-5.1516-2.81-15.5418-10.2008-27.7945-23.7077-38.7218-38.5519-2.4932-3.3869-6.24-6.3175-7.4557-10.0882-3.2283-10.0112-5.5856-20.3216-7.9307-30.595-3.9339-17.2326-5.15-34.7592-5.6128-52.4065-.5494-20.9422-1.7053-41.842-8.82-61.9141a161.4118,161.4118,0,0,1-8.2374-40.327c-2.68-31.0359.7354-61.3725,9.33-91.2051,8.0257-27.8568,24.9815-50.6546,41.9885-73.3678,4.8508-6.4783,10.8409-12.1185,15.5329-18.6963,4.2982-6.0258,7.2775-12.9743,11.3109-19.21,14.8242-22.92,16.623-47.89,11.8941-73.8829-.3144-1.7283-2.4-3.1342-3.6624-4.69-1.1889,1.7336-2.8317,3.3143-3.4767,5.2309-1.5758,4.6821-1.9054,9.9314-4.1515,14.21-4.8456,9.23-10.4269,18.0893-16.007,26.9108-3.4612,5.4717-7.4364,10.6217-11.2433,15.8708-10.6411,14.6726-21.1836,29.4192-32.0063,43.957-16.01,21.5058-31.747,43.1079-38.02,69.9051-1.814,7.7488-3.9611,15.4191-5.8191,23.1582C8.7049,361.3817,4.29,385.8858,2.9941,410.8709.9627,450.0464,6.7328,488.5036,13.3858,526.92c2.0358,11.7554,4.126,23.8015,3.6555,35.6135a93.3867,93.3867,0,0,0,6.76,40.2642c9.1917,22.4288,19.31,44.1933,35.473,62.5959,5.4829,6.2425,10.1492,13.8515,16.8851,18.2206A266.2782,266.2782,0,0,0,137.43,713.2558a119.3684,119.3684,0,0,1,13.625,5.9382c7.3024,3.4806,14.49,7.2021,21.793,10.6814,7.64,3.64,15.3759,7.0777,23.0332,10.6816,2.339,1.1008,4.431,2.8594,6.8548,3.6221,6.7987,2.1392,13.7754,3.7259,20.526,5.9945a5.6326,5.6326,0,0,1,2.8956,4.4972c-1.6259,16.8893-3.9664,33.7157-5.3429,50.6219-2.2423,27.54-3.78,55.1363-5.8631,82.69-1.5674,20.7289-3.1976,41.4634-5.412,62.13a217.6185,217.6185,0,0,0,.0151,49.3174c2.2967,19.1288,4.9563,38.2138,7.42,57.3227,2.2743,17.6423,3.4982,35.4927,7.005,52.8844,4.0423,20.0471,4.245,39.9017,2.1531,60.0351-1.3744,13.2275-2.7942,26.4862-3.2621,39.7637-.7732,21.9385.5568,43.8679-1.715,65.8629-2.0473,19.8211-1.5982,39.9015-2.1823,59.87a27.0233,27.0233,0,0,0,.5869,5.9228c.7265,3.71,1.8076,7.4054,6.5315,7.497,4.6315.09,7.4915-2.3117,8.2384-6.9843.559-3.4972,2.834-4.4566,5.792-3.4014,13.2581,4.7286,26.4532,9.6337,39.6859,14.434,3.7134,1.3472,7.3973,3.0091,11.2428,3.6884a5.7334,5.7334,0,0,0,7.0658-4.7705c.7773-3.6533-1.7293-5.3678-4.482-6.1739-7.1665-2.0985-12.8533-6.5821-19.05-10.4391-13.444-8.3689-26.3933-17.0075-37.4249-28.6791-8.2133-8.69-11.05-18.2645-9.8637-29.5469.9382-8.9207,2.5752-17.778,3.2618-26.7127.8288-10.7865,1.1518-21.6214,1.3743-32.4419.1838-8.9346-.5482-17.9041-.0491-26.8119.5316-9.4888,2.7171-18.9047,2.9761-28.3853.64-23.4289.1784-46.72-4.7129-69.95-3.9949-18.9729-5.7119-38.4513-7.9354-57.7635-2.0715-17.9917-4.9-36.0649-4.8372-54.0932.089-25.4366,2.5229-50.8656,3.9759-76.2965.9974-17.4583,1.8389-34.9284,3.0966-52.3683,1.6873-23.3962,3.6125-46.7766,5.6379-70.1463.7456-8.6023,2.0484-17.1571,3.1358-25.7285.3852-3.0368,1.6331-4.5106,5.2341-4.112a180.9462,180.9462,0,0,0,19.9145,1.0822c6.8208-.0017,13.6383-.7188,20.4631-.9337,6.8533-.2157,8.9626,1.6814,9.0623,8.7188.1346,9.4945.1057,19.0039-.2683,28.4906-1.0826,27.4626-2.7746,54.9066-3.4881,82.3771-1.0947,42.1467-1.508,84.3105-2.3526,126.4644-.24,11.9887-.8126,23.9771-1.515,35.9492-1.3748,23.4345-2.9608,46.8568-4.4329,70.2856-.5325,8.4745-1.1043,16.949-1.4556,25.4318-.7,16.8979-4.2829,33.68-2.3432,50.6717.8024,7.03,2.007,14.04,3.4859,20.961,2.9792,13.9427,7.6386,27.6729,9.1373,41.7536,2.7255,25.6076,3.5925,51.411,5.4819,77.1145.1037,1.4093,2.2605,3.4024,3.8139,3.8232a56.0645,56.0645,0,0,0,11.2758,1.6084C306.8278,1325.8,308.4843,1324.8661,311.4152,1324.0278Z" transform="translate(-1 -1.0502)"/><path d="M311.4152,1324.0278c-2.9309.8383-4.5874,1.7718-6.1823,1.6761a56.0645,56.0645,0,0,1-11.2758-1.6084c-1.5534-.4208-3.71-2.4139-3.8139-3.8232-1.8894-25.7035-2.7564-51.5069-5.4819-77.1145-1.4987-14.0807-6.1581-27.8109-9.1373-41.7536-1.4789-6.9213-2.6835-13.9311-3.4859-20.961-1.94-16.9917,1.6434-33.7738,2.3432-50.6717.3513-8.4828.9231-16.9573,1.4556-25.4318,1.4721-23.4288,3.0581-46.8511,4.4329-70.2856.7024-11.9721,1.2748-23.9605,1.515-35.9492.8446-42.1539,1.2579-84.3177,2.3526-126.4644.7135-27.4705,2.4055-54.9145,3.4881-82.3771.374-9.4867.4029-18.9961.2683-28.4906-.1-7.0374-2.209-8.9345-9.0623-8.7188-6.8248.2149-13.6423.932-20.4631.9337a180.9462,180.9462,0,0,1-19.9145-1.0822c-3.601-.3986-4.8489,1.0752-5.2341,4.112-1.0874,8.5714-2.39,17.1262-3.1358,25.7285-2.0254,23.37-3.9506,46.75-5.6379,70.1463-1.2577,17.44-2.0992,34.91-3.0966,52.3683-1.453,25.4309-3.8869,50.86-3.9759,76.2965-.063,18.0283,2.7657,36.1015,4.8372,54.0932,2.2235,19.3122,3.94,38.7906,7.9354,57.7635,4.8913,23.23,5.3529,46.5208,4.7129,69.95-.259,9.4806-2.4445,18.8965-2.9761,28.3853-.4991,8.9078.2329,17.8773.0491,26.8119-.2225,10.8205-.5455,21.6554-1.3743,32.4419-.6866,8.9347-2.3236,17.792-3.2618,26.7127-1.1867,11.2824,1.65,20.8572,9.8637,29.5469,11.0316,11.6716,23.9809,20.31,37.4249,28.6791,6.1963,3.857,11.8831,8.3406,19.05,10.4391,2.7527.8061,5.2593,2.5206,4.482,6.1739a5.7334,5.7334,0,0,1-7.0658,4.7705c-3.8455-.6793-7.5294-2.3412-11.2428-3.6884-13.2327-4.8-26.4278-9.7054-39.6859-14.434-2.958-1.0552-5.233-.0958-5.792,3.4014-.7469,4.6726-3.6069,7.0741-8.2384,6.9843-4.7239-.0916-5.805-3.7873-6.5315-7.497a27.0233,27.0233,0,0,1-.5869-5.9228c.5841-19.968.135-40.0484,2.1823-59.87,2.2718-21.995.9418-43.9244,1.715-65.8629.4679-13.2775,1.8877-26.5362,3.2621-39.7637,2.0919-20.1334,1.8892-39.988-2.1531-60.0351-3.5068-17.3917-4.7307-35.2421-7.005-52.8844-2.4633-19.1089-5.1229-38.1939-7.42-57.3227a217.6185,217.6185,0,0,1-.0151-49.3174c2.2144-20.6664,3.8446-41.4009,5.412-62.13,2.0835-27.5538,3.6208-55.15,5.8631-82.69,1.3765-16.9062,3.717-33.7326,5.3429-50.6219a5.6326,5.6326,0,0,0-2.8956-4.4972c-6.7506-2.2686-13.7273-3.8553-20.526-5.9945-2.4238-.7627-4.5158-2.5213-6.8548-3.6221-7.6573-3.6039-15.3932-7.0419-23.0332-10.6816-7.3029-3.4793-14.4906-7.2008-21.793-10.6814a119.3684,119.3684,0,0,0-13.625-5.9382A266.2782,266.2782,0,0,1,76.1592,683.614c-6.7359-4.3691-11.4022-11.9781-16.8851-18.2206-16.163-18.4026-26.2813-40.1671-35.473-62.5959a93.3867,93.3867,0,0,1-6.76-40.2642c.4705-11.812-1.62-23.8581-3.6555-35.6135C6.7328,488.5036.9627,450.0464,2.9941,410.8709c1.2955-24.9851,5.7108-49.4892,11.5386-73.7651,1.858-7.7391,4.0051-15.4094,5.8191-23.1582,6.2734-26.7972,22.01-48.3993,38.02-69.9051,10.8227-14.5378,21.3652-29.2844,32.0063-43.957,3.8069-5.2491,7.7821-10.3991,11.2433-15.8708,5.58-8.8215,11.1614-17.6812,16.007-26.9108,2.2461-4.2782,2.5757-9.5275,4.1515-14.21.645-1.9166,2.2878-3.4973,3.4767-5.2309,1.262,1.5559,3.348,2.9618,3.6624,4.69,4.7289,25.9924,2.93,50.9633-11.8941,73.8829-4.0334,6.236-7.0127,13.1845-11.3109,19.21-4.692,6.5778-10.6821,12.218-15.5329,18.6963-17.007,22.7132-33.9628,45.511-41.9885,73.3678-8.5949,29.8326-12.01,60.1692-9.33,91.2051A161.4118,161.4118,0,0,0,47.1,459.2429c7.1147,20.0721,8.2706,40.9719,8.82,61.9141.4629,17.6473,1.6789,35.1739,5.6128,52.4065,2.3451,10.2734,4.7024,20.5838,7.9307,30.595,1.2159,3.7707,4.9625,6.7013,7.4557,10.0882,10.9273,14.8442,23.18,28.3511,38.7218,38.5519,1.225.8039,2.5768,1.4147,5.1516,2.81-.5426-3.5943-.9295-6.1921-1.3275-8.7881-2.4651-16.0753-6.1571-32.0367-4.5215-48.4924a14.6849,14.6849,0,0,1,.6758-4.3923c4.9331-11.2007,9.7868-22.4452,15.1227-33.4545,1.7979-3.7093,2.2623-6.7418-.1975-10.078-1.8767-2.5452-3.5706-5.2346-5.5613-7.6849A123.8432,123.8432,0,0,1,97.2248,471.446c-1.497-22.7142,6.6382-43.0783,22.2456-59.7076,3.5039-3.7334,9.9-5.0914,15.2181-6.7116,10.6543-3.2459,20.993-7.6906,32.4069-8.3958,1.6807-.1038,4.1852-4.5274,4.4393-7.1345,1.3907-14.2714,7.3291-27.0587,12.2556-40.1907.0583-.1553.0828-.3233.142-.4782,3.636-9.5024,3.48-9.5707-6.0723-11.7383-22.65-5.14-37.6468-18.4989-42.5175-41.5894-1.278-6.0583-.4639-12.6208-.1594-18.93a108.992,108.992,0,0,1,1.8422-14.8009c3.6516-19.45,12.5146-36.4,28.3473-48.1729,7.5407-5.6073,17.615-8.3555,26.9542-10.8613a269.7709,269.7709,0,0,1,38.0641-7.5107c21.4046-2.5319,38.5471,7.0914,51.4751,23.0044,7.047,8.6742,13.2869,10.4427,23.0557,6.197,8.3339-3.622,17.2676-5.8431,25.8247-8.9868,2.0415-.75,3.5854-1.4345,3.7945-5.3511.63-11.7961-7.3187-20.5592-9.0314-31.4558-3.4978-22.2546-2.39-43.41,11.0067-62.4761,5.2514-7.4738,10.7622-14.7923,16.56-21.8484,8.3495-10.1614,19.6105-14.09,32.4436-13.2738,18.1656,1.1553,34.706,6.6439,46.9565,20.8793,3.4428,4.0006,5.5213,9.3167,7.64,14.2794,2.642,6.1881,4.678,12.6349,7.0615,19.2064,10.0233-4.9736,19.092-10.3033,28.7578-14.121C511.4229,107.2612,547.1285,93.8,582.7,79.9947c6.292-2.4419,12.3028-5.6006,18.5137-8.2644,1.59-.682,3.4529-.7176,5.1827-1.0864,6.0247-1.2846,12.0461-2.5852,19.1886-4.12-3.2771-5.3577-5.7494-9.2165-8.0163-13.1923a18.7241,18.7241,0,0,1-2.1556-5.4425c-.9057-4.4956,1.6606-6.5939,5.9753-5.0678,2.0128.712,3.9958,1.5079,7.1474,2.7042-.85-3.029-1.5151-5.1018-2.0073-7.2149-1.0467-4.493-2.337-8.972-2.8127-13.5314-.1625-1.5568,1.813-3.3368,2.8117-5.0148,1.4414,1.3149,2.9287,2.5849,4.2924,3.976.3464.3532.2994,1.0921,1.2943,1.5533V9.504c4.6193,1.8054,9.3017,10.2088,7.882,14.7515-1.5879,5.081.1224,11.082-4.5483,15.4325-.821.7648.2113,3.7451.6816,5.629,1.5395,6.168-.1634,8.1339-6.2,7.0519-2.1114-.3784-4.2536-.5846-6.4186-.8743,4.4636,10.7276,11.6115,13.7462,21.3309,9.1377-1.3066-4.42-2.7664-8.7884-3.837-13.2505-.4493-1.8728-.0747-3.9433-.0747-6.06l5.45-1.096c-1.6154-7.5482-1.5014-7.746,5.937-8.9652-.7677-3.4594-1.62-6.8649-2.26-10.31-.61-3.2881-.9991-6.6173-1.6922-11.3379,2.426,1.4016,3.6977,1.7013,4.1933,2.4892,5.4591,8.68,9.0058,17.7849,5.5954,28.243a12.809,12.809,0,0,0-.95,3.3424c-.1634,4.8863-2.9971,5.8115-7.1111,5.062-.9226-.168-1.8639-.2338-2.7965-.3466l-1.12,1.1823c2.8156,3.1481,5.2674,8.4283,8.5254,8.9843,6.1,1.0411,13.2269,1.7651,17.266-6.159,2.0007-3.9253,5.8245-7.22,9.4719-9.9256a10.0457,10.0457,0,0,1,12.5881.1871c3.84,2.9408,5.6975,7.148,4.3236,11.9346-1.2269,4.2748-2.3474,9.0722-5.1076,12.26-2.2226,2.5667-6.7214,3.8662-10.39,4.3421-10.12,1.3127-10.4041,1.7243-10.6793,11.9175-.0745,2.7606-2.7234,5.7744-4.8307,8.0893-4.2075,4.6218-5.73,9.4657-2.97,15.7466,2.1977-1.6255,4.0014-3.5227,6.2119-4.4421,2.393-.9954,5.6719-2.1471,7.6143-1.2263,1.59.7536,2.3748,4.4313,2.4574,6.8488.1237,3.6219-.6919,7.2743-1.0875,10.9159-.4313,3.9687-2.1034,7.9492,2.4838,11.1539,2.2157,1.548.8713,3.7635-1.8024,3.9193-3.2964.192-6.0065-.9429-6.35-4.7844-.5279-5.9013-.9394-11.8129-1.4558-18.4323-2.7126,2.0907-5.05,3.8261-7.3135,5.6524-3.304,2.6654-5.6676,1.8082-7.64-1.7106-2.6938-4.8055-3.944-4.9679-7.1071-.5266-1.6236,2.28-2.5177,5.0787-3.7415,7.643l1.1383,1.15a28.2782,28.2782,0,0,0,4.0979-1.6292c4.4392-2.5942,6.6351-2.091,8.4206,2.7112a24.0551,24.0551,0,0,0,6.6905,9.4816c6.8422,6.4883,10.0777,15.642,13.5257,24.3455q-.5655.7268-1.1311,1.4536c-1.6435-.7932-3.7275-1.1967-4.8422-2.4575-2.6314-2.9758-4.5931-6.5443-7.2275-9.5168-1.8982-2.1416-4.7193-3.4618-6.6332-5.5933-2.5688-2.8608-4.66-6.1507-7.23-9.6269-1.9329,1-4.5651,3.4722-6.9762,3.2728-2.0889-.1727-3.9274-3.3749-6.3916-5.73a39.6975,39.6975,0,0,0-3.7884,3.3031q-34.0467,36.9007-68.051,73.8406A127.5675,127.5675,0,0,1,557.2568,217.88a124.3747,124.3747,0,0,0-27.1112,32.9491c-11.7845,20.2532-24.2033,40.1513-36.8536,59.8792-4.7272,7.3721-10.6727,14.0034-16.424,20.66-2.602,3.0118-2.8446,5.0086.014,7.9267,7.6146,7.7728,7.5131,7.8678-.5647,15.2246-1.3552,1.2343-2.67,2.5126-4.0239,3.7485-6.9309,6.3277-12.75,5.5972-18.0832-2.2624-.4587-.6759-.91-1.357-1.5225-2.2714-3.9447,1.8918-5.4015,4.05-3.4031,8.5183,4.2248,9.4454,1.7325,14.7045-7.944,18.0253-2.1857.75-4.536,1.03-6.705,1.8176-4.11,1.4917-7.189.2659-9.3636-3.312-2.1993-3.6186-5.1417-4.4577-8.9076-2.7883-7.3918,3.2766-15.1485,5.944-22.0576,10.0388-7.7489,4.5925-7.4774,12.3265.0775,17.2337,10.44,6.7814,21.4032,5.9607,32.4355,1.4353,1.9972-.8193,3.9275-2.2292,5.9668-2.3927,1.88-.1508,4.4337.4822,5.6171,1.7624.88.9517.5174,3.6833-.1339,5.2782-1.12,2.7432-3.0138,5.1585-4.3725,7.8188-2.551,4.9945-4.6135,9.88-4.7385,15.9243-.112,5.4165-2.8264,10.8365-4.708,16.1431-1.9384,5.4671-4.6546,10.6789-6.3312,16.2142-4.01,13.24-7.5641,26.6182-11.4136,39.9083-.7594,2.6219-.18,4.108,2.4629,4.9228,18.6209,5.7412,28.888,20.159,36.615,36.5638,10.1356,21.5186,16.3237,44.3671,17.0808,68.1483.5753,18.07-.544,36.2289-1.62,54.306-.8382,14.0862-1.6917,28.3285-4.5171,42.0954-2.8518,13.8953-7.9318,27.36-12.4231,40.8845-4.3294,13.0374-9.6857,25.7536-13.567,38.9129-2.4413,8.2773-1.1966,16.7625,3.4364,24.5459,2.0878,3.5074,4.5708,5.0526,8.5426,4.258,2.2747-.4549,4.6233-1.3578,6.8358-1.1165,3.3974.3706,8.6607.6131,9.6163,2.6005,1.6253,3.38,1.2922,8.2656.3362,12.1642-.9476,3.865-3.8689,7.206-5.58,10.935-1.8691,4.0733-4.9477,4.7315-8.9979,4.5a12.3507,12.3507,0,0,0-7.0924,1.514c-7.1759,4.7288-12.0819,2.6411-13.0291-5.9382a8.3032,8.3032,0,0,1-.2228-2.4791c2.5179-11.8861-3.0273-22.5549-4.6683-33.8023-1.0526-7.2147.4518-15.3195,2.752-22.3938a333.9368,333.9368,0,0,1,14.9843-37.8162,150.122,150.122,0,0,0,13.3081-50.76c1.7448-19.5544,4.0013-39.0652,5.581-58.6317,1.7125-21.2125-3.2886-41.6378-8.2985-62.0029-4-16.2606-9.999-31.6141-20.43-44.988a39.7486,39.7486,0,0,0-18.3173-13.2851c-4.5717-1.6359-6.5663-.5166-6.2853,4.35.9089,15.7432,2.24,31.4619,3.3947,47.1912,1.0917,14.8744,2.8171,29.5228-3.2513,44.2058-3.46,8.3718-3.49,18.1307-5.3125,27.2152-5.6192,28.0048-11.963,55.7777-24.7988,81.6228-7.8082,15.7221-21.5266,21.6606-37.72,23.9414-4.769.6717-9.5087,1.7169-14.2986,2.03a129.7048,129.7048,0,0,1-17.3415.1c-6.1335-.423-7.6555.2728-7.87,6.4143-.8007,22.9642-1.4033,45.9354-2.1027,68.9032-.891,29.2578-2.0868,58.51-2.5684,87.7745-.1935,11.7617,1.58,23.5447,1.6954,35.3254.1231,12.5978-.42,25.2171-1.1089,37.8031-.59,10.7876-2.0458,21.5268-2.6813,32.3131-1.557,26.4282-2.726,52.8793-4.3145,79.3055-1.0782,17.9354-3.2113,35.8252-3.7732,53.77-.7,22.37,3.5573,44.3278,7.3019,66.3009,1.0428,6.12.4262,12.5046.9209,18.74.3894,4.9088,1.376,9.7674,1.9916,14.6617.93,7.3975,1.766,14.8067,2.6477,22.21.648,5.4415,1.1978,10.8985,2.0264,16.3125a7.6693,7.6693,0,0,0,2.0334,4.4039c9.3191,8.07,18.6339,15.7583,31.9784,16.7747,9.6994.7389,19.2453,3.3988,28.8854,5.0524,4.4146.7573,8.9078,1.05,13.332,1.7608,2.0892.3356,4.48.6737,6.0409,1.8958,1.6018,1.2538,3.3945,3.7237,3.1737,5.4088-.1953,1.4906-3.0058,3.6931-4.7278,3.7556-9.9368.36-19.9317.7306-29.8331.04C334.6855,1327.2258,322.514,1325.3384,311.4152,1324.0278ZM179.0163,396.1244c14.05,2.2654,26.6288,4.33,39.23,6.2474a3.7951,3.7951,0,0,0,2.8769-1.3c4.8545-5.881,10.1587-11.5,14.23-17.8966,10.0778-15.8329,19.4634-32.1048,29.3583-48.0569,3.8451-6.1988,4.1564-12.4109,3.0138-19.4766-4.7305-29.2534,11.0133-52.6866,39.0276-62.64a35.6452,35.6452,0,0,1,21.6428-.4313c21.2493,5.8256,32.9148,27.9927,27.2339,51.1651-3.0895,12.6021-11.6576,21.2276-20.9656,29.05-15.3984,12.941-32.5375,19.1137-52.7875,10.48-7.1264,12.427-14.4217,24.8761-21.4129,37.4938-2.3148,4.1778-3.707,8.8565-5.78,13.182-1.654,3.4511-3.8132,6.658-5.5224,10.0859a9.3592,9.3592,0,0,0-1.2442,4.88c.5276,4.3742.4281,8.3228-4.0073,10.7828.2809.8573.4528,1.4854.6894,2.0882,3.2072,8.1689,1.4815,10.9347-7.38,11.2207a8.1519,8.1519,0,0,0-7.767,5.1761c-2.1684,4.662-4.1617,9.411-6.48,13.9962-2.44,4.8255-8.4687,7.2949-13.0171,5.6266-4.4245-1.6229-6.2269-5.9981-4.3063-12.22q4.3245-14.0094,9.3957-27.7837c1.308-3.5662.0381-5.0831-3.1151-5.6008-8.8465-1.4525-17.6788-3.3029-26.5926-3.948-9.48-.686-7.3875-1.724-10.3373,7.3018a62.4574,62.4574,0,0,0-1.9812,6.6694c-5.0382,24.3551-10.1709,48.6924-14.9456,73.0994-2.189,11.19-3.0881,22.6473-5.5828,33.7564-2.6181,11.6584-5.9878,22.7922-12.9439,33.3484-9.1779,13.9278-11.2294,31.1189-13.3126,47.5307-2.1866,17.2262,2.3836,34.0085,6.3092,50.6883,7.06,29.9962,23.9855,51.3841,53.6826,61.717a39.57,39.57,0,0,1,8.5443,3.986A115.2212,115.2212,0,0,0,247.903,744.64c12.3814,1.0837,25.09-1.1676,37.619-2.291,11.88-1.0653,23.8311-1.9863,35.538-4.1324,9.6923-1.777,19.6193-4.111,28.418-8.3329,6.8048-3.2651,12.56-9.35,17.7626-15.1023a36.36,36.36,0,0,0,7.7182-14.2671c5.37-19.4448,10.9794-38.9052,14.7082-58.6972,3.2847-17.4348,4.7336-35.2824,5.9374-53.0193a217.7056,217.7056,0,0,0-.5521-36.4018c-2.1527-21.37-3.3183-42.6852,3.1657-63.3777,5.2493-16.7519,12.0831-33.007,18.199-49.4881.8647-2.33,2.1059-4.659,2.2772-7.0525.0925-1.2926-1.8176-3.95-2.6424-3.88-4.0012.3445-4.7561-2.0455-4.8553-4.6626-10.3733,1.7008-19.617,1.7948-28.51-5.2066-6.248-4.9191-7.8764-11.21-9.4311-17.948-3.3018-14.31.1739-24.3236,11.3228-30.3547A112.0384,112.0384,0,0,1,399.62,363.97c20.9178-7.6129,42.134-14.6753,59.4324-29.4432,3.6388-3.1065,6.0944-7.59,9.1473-11.3968a32.2824,32.2824,0,0,1,3.3088-3.5771c3.77-3.4649,8.5123-6.26,11.2493-10.3932,10.3653-15.6528,21.4467-31.0592,29.729-47.8093,11.9892-24.2471,27.656-45.14,46.8465-64.0474,22.4242-22.0933,44.6188-44.5464,65.2633-68.2785,16.1086-18.5177,29.7028-39.2235,44.3755-58.9858.5234-.7049.6329-1.7172,1.1955-3.3341-2.62-.1224-4.7633-.5708-6.7882-.2559-8.1816,1.2724-16.6028,1.8994-24.4361,4.3569-30.0542,9.429-59.9352,19.414-89.8447,29.3-60.031,19.8425-115.5431,48.7609-167.835,84.0437-6.9553,4.6929-14.3979,9.032-18.5569,16.9889-1.425,2.7262-4.1422,2.3165-5.7963.2057a38.601,38.601,0,0,1-5.712-9.2377c-5.936-14.9433-7.4366-30.5053-6.1594-46.4843,1.295-16.2027,7.6774-29.7547,19.903-40.4921,6.4047-5.6251,12.8784-11.1716,19.3209-16.7535-3.96.6751-8.3932,1.3631-11.6577,3.69-12.0214,8.57-22.4927,18.7368-29.4343,32.0611-6.1292,11.7652-7.2209,24.71-9.3185,37.5062-1.6537,10.0887.4277,18.9818,4.8058,27.8888a157.1,157.1,0,0,1,6.8352,17.6067c.5626,1.6105.8556,3.9466.0949,5.2757-2.8725,5.0183-5.9183,10.0362-11.8738,12.1587Q316.3989,230.7355,299.12,237.01a23.1207,23.1207,0,0,0-4.0957,1.6171c-4.1692,2.4985-9.1076,1.7522-11.0465-2.532-4.9671-10.9757-14.12-17.86-23.1866-24.9295a34.3437,34.3437,0,0,0-22.6889-7.3987c-22.1527.4484-42.2389,7.8433-61.6827,17.6081-.2782.14-.2965.7972-.5512,1.5556,9.9624-1.3966,19.6161-3.0563,29.3385-4.03,10.5179-1.0535,20.803-3.8508,31.7349.4247,5.32,2.0808,11.4512,2.7725,15.5017,6.9505,6.4514,6.6545,12.1176,14.0679,18.1546,21.1272,4.1546,4.8582,2.6432,10.3194-.2654,14.2873a298.6942,298.6942,0,0,1-24.264,29.7252c-12.7527,13.379-26.4524,25.8532-39.6684,38.7948-1.9993,1.9578-4.1977,4.0963-5.2256,6.5949-4.2217,10.262-8.0335,20.693-11.98,31.068-.8814,2.3175-1.7017,4.6585-2.541,6.9919C184.1556,381.8123,181.6614,388.7612,179.0163,396.1244ZM217.558,226.85c-2.7116.3176-6.3579.6-9.9534,1.1907-15.9277,2.619-31.1771,7.3631-43.5511,18.0709a67.9357,67.9357,0,0,0-13.791,17.236c-6.8662,11.8512-6.22,24.5327-2.2375,37.3846,1.6777,5.4139,3.4533,10.85,8.2881,13.7326a308.9582,308.9582,0,0,0,28.4882,15.0141,9.3042,9.3042,0,0,0,10.9863-2.1379c8.8745-8.9848,17.6069-18.2391,27.3778-26.1774a240.3627,240.3627,0,0,0,35.6958-35.3819c3.9959-4.9421,3.6843-12.621.5759-18.0162C250.2572,231.8315,234.82,228.6449,217.558,226.85Zm219.3781-85.6149c-1.4327-5.3437-2.351-10.1375-4.0137-14.6576-2.6627-7.2387-4.7734-15.0079-9.0264-21.2528-5.5208-8.1061-13.5844-12.5974-24.4637-10.7457-22.0271,3.7492-34.7521,18.8948-43.9853,36.9265-8.4792,16.5592-4.3711,34.0485,1.3459,50.86a8.8581,8.8581,0,0,0,3.598,4.5337,5.7585,5.7585,0,0,0,5.0186-.0321c16.2678-10.6141,32.3138-21.5691,48.6129-32.1339C421.7914,149.6969,429.9793,145.3074,436.9361,141.2349ZM137.13,536.5967c13.811-42.266,18.52-86.2091,27.2707-130.64-7.7575,2.0855-14.8323,4.2944-22.0463,5.8631-15.06,3.2748-23.3206,13.4339-27.283,27.3341a155.0289,155.0289,0,0,0-4.7354,25.8811c-1.4688,13.6817-.13,26.9075,9.4491,38.0077a7.5351,7.5351,0,0,1,1.6976,4.5131C121.5363,520.1083,130.12,527.89,137.13,536.5967ZM338.7357,295.089c.0634-8.47-4.7929-16.4382-13.3435-21.37-7.9188-4.5669-16.0153-5.0364-24.1306-.3548-11.6694,6.732-19.9033,23.6671-18.0049,37.0413,1.4156,9.9722,6.1741,14.69,16.272,15.6117a55.353,55.353,0,0,0,11.4136-.1276C327.6671,323.9244,338.6116,311.6831,338.7357,295.089ZM39.5524,621.6528c2.8833,6,4.7229,11.8487,11.9807,13.2262,7.308,1.3871,14.5546,3.0981,21.8261,4.6762,2.0959.4549,4.1849.9415,6.8986,1.5538C75.7053,632.1434,51.77,620.8149,39.5524,621.6528ZM48.1636,510.29c.997-3.458,2.1467-5.7359-2.0859-6.2213a9.407,9.407,0,0,1-4.8056-2.2523c-8.1216-7.1519-16.2326-14.3271-24.0452-21.81-1.7463-1.6725-2.29-4.6-3.3879-6.95,2.4446.859,5.355,1.1428,7.2516,2.6785,7.4972,6.0707,14.6574,12.5563,21.9929,18.8292a37.4518,37.4518,0,0,0,4.0175,2.6525c-10.2253-12.52-21.7358-23.3247-35.6173-31.9651a143.38,143.38,0,0,0,3.0969,20.0934,5.15,5.15,0,0,0,2.1913,2.5235C24.0931,492.988,31.5,497.9856,38.81,503.1209,41.8535,505.26,44.7256,507.6428,48.1636,510.29Zm18.95,113.147c-2.325-5.765-4.5515-10.02-9.3524-12.33-7.453-3.5858-14.8922-7.2-22.3618-10.7511-1.6385-.779-3.38-1.3412-5.8308-2.2989,3.461,9.2138,6.69,16.9721,17.2664,18.0009,3.5338.3438,6.9551,2.0751,10.3714,3.3262C60.22,620.4884,63.1559,621.8068,67.1135,623.4374Zm54.3694,46.7161-47.9-2.6259C77.0825,675.509,110.7805,677.3083,121.4829,670.1535ZM10.0547,429.0916l-2.0093.8849c1.2,2.8431,1.7725,6.2459,3.7168,8.4244,5.8394,6.543,12.3505,12.4811,18.3372,18.9,4.9256,5.2811,9.4767,10.9114,14.1938,16.387l1.0254-.8509C37.6078,455.0332,22.5033,443.12,10.0547,429.0916ZM60.4265,654.836c2.101,4.4489,4.5366,6.0352,8.2881,6.2134,13.5885.6458,27.1677,1.4859,40.75,2.2527C94.0751,657.0622,77.9107,655.0955,60.4265,654.836Zm-4.8728-60.0243c.2617-5.9113-20.8682-24.3426-31.8274-27.9486,1.86,3.586,2.52,6.81,4.4918,8.322C36.8827,581.8268,45.9267,587.9736,55.5537,594.8117Zm184.658-182.9333c-1.8566-1.45-2.6006-2.041-3.3554-2.6183-4.6365-3.5457-4.5043-5.3389.5376-8.2373,2.2483-1.2925,4.4318-2.6975,6.8912-4.2023-5.3937-3.4434-7.5236-3.2658-10.1072,1.6609-3.7839,7.2157-6.9972,14.7308-10.8178,22.8966l11.9229,4.258,1.2221-1.849c-1.1189-.6942-2.4819-1.1735-3.3144-2.12-3.6043-4.0965-2.8034-6.4266,2.3517-7.6788A32.0426,32.0426,0,0,0,240.2117,411.8784ZM10.4646,458.0637c3.5613,1.266,6.2573,1.5966,8.1317,3.0137,4.7683,3.6049,9.2086,7.651,13.7061,11.6048,4.6372,4.0764,9.1869,8.2524,13.7749,12.3848l.8365-.9111L11.2572,446.47l-1.6793,1.0253ZM35.724,346.3678c1.85-3.8306,2.25-6.22-.9048-9.2455-4.025-3.86-6.9052-8.8259-6.73-14.6971l1.2671-.8658,9.6975,9.6524,1.1593-1.0241-12.8259-17.427c-1.5214,6.1366-2.7876,10.89-3.818,15.6939a4.4672,4.4672,0,0,0,.7819,3.1976C27.9069,336.4262,31.6148,341.0869,35.724,346.3678ZM89.286,681.23l-.052,1.6015c3.3586,2.6154,6.7193,4.8029,11.56,3.6423,3.69-.8848,7.5769-.914,11.3385-1.5471,5.6884-.9576,11.344-2.11,17.0136-3.1791q-.1817-1.3682-.3632-2.7361Zm-78.92-270.565c-1.8589,5.0706-.6317,8.09,1.8463,10.8157q6.3854,7.0238,12.7932,14.0269,4.9673,5.4216,9.9715,10.8091l1.5108-1.25C29.4189,432.845,20.0013,422.3624,10.3659,410.6646ZM53.002,576.4818c-6.2859-11.7668-18.2975-16.8966-28.7464-25.1941C24.4818,557.0675,40.9955,571.5362,53.002,576.4818Zm36.0458,74.19.3675-1.4283-40.21-10.13c2.7942,4.45,4.73,7.9028,9.224,8.4C68.6273,648.6409,78.8407,649.6278,89.0478,650.6718ZM47.8585,523.0233l2.1551-1.6254c-.6309-1.1828-.999-2.6623-1.94-3.4951-3.4714-3.0735-7.1457-5.9167-10.7169-8.8789-2.1774-1.806-4.2465-3.7469-6.4728-5.4886-2.2228-1.7389-4.5582-3.338-6.8863-4.9371-2.1194-1.4557-4.2953-2.8291-6.4462-4.2387l-.8124,1.1478Zm.72,13.3075c.2731-5.9023-21.841-25.7874-32.4942-28.9819,1.683,2.1639,2.3773,3.6224,3.53,4.4039,1.6467,1.1162,3.9847,1.3453,5.4066,2.6367,6.0353,5.4817,11.824,11.2342,17.7419,16.8464C44.5248,532.9065,46.4143,534.4424,48.5784,536.3308Zm59.9361,156.3831c5.0192,4.258,20.368,2.6922,27.2286-2.1219C126.02,686.9047,118.0955,691.7975,108.5145,692.7139ZM91.249,243.2472c1.46-6.8722-2.6384-19.9215-6.6269-21.9243C81.69,226.4318,84.8548,237.3388,91.249,243.2472Zm-71.79,279.7616,30.53,28.2112C47.3028,544.2969,26.726,525.0232,19.4592,523.0088Zm28.8173,75.7325c-5.7979-7.1168-13.5469-11.1424-22.0538-13.9671C30.61,594.1268,40.4939,594.769,48.2765,598.7413ZM68.8028,271.8035l1.3779-.89c-.4814-7.5389-5.7854-12.753-10.1519-18.8625-1.3955,1.9062-3.201,4.6336-2.5061,5.6476C60.9166,262.6508,64.9777,267.1463,68.8028,271.8035ZM13.2347,383.9447c-2.2773,4.5708-2.2564,7.01,1.2379,8.9287a17.9328,17.9328,0,0,1,4.64,4.4081c3.7706,4.4953,7.41,9.1,11.1016,13.662l1.6-1.2171C25.8046,401.3869,19.7946,393.0474,13.2347,383.9447ZM46.7265,274.0192c3.0956,5.8708,6.1911,11.7416,9.4243,17.8736C61.3179,286.2359,57.6854,279.1626,46.7265,274.0192ZM22.07,534.9494c.0988,6.1722,13.2693,19.1025,21.0016,20.6142ZM13.0969,372.3885c5.62,7.8339,11.2407,15.6677,17.39,24.2392C30.9052,391.0573,19.858,375.14,13.0969,372.3885Zm18.0009,54.04,1.4573-1.3086q-10.1515-12.8014-20.3029-25.603l-2.2557,1.8477Zm.8281-125.8461c-1.1566,6.4638,5.5581,16.7592,11.9031,19.2471Zm428.8688,45.9649c2.7754,1.9348,3,7.473,7.5761,4.3673,4.0282-2.734,2.03-6.0833-.3519-9.62Zm-25.242,14.7133-7.7554,5.3089c1.3894,1.1817,3.35,3.633,4.0632,3.3121,2.3391-1.0533,4.2852-3.0517,6.174-4.9C438.1907,364.8291,436.7779,363.0728,435.5527,361.2608ZM69.2538,242.9942c-2.5053,4.5354,2.3653,13.8741,8.2109,16.9578Q73.3594,251.4731,69.2538,242.9942ZM31.173,381.5791l1.48-.94L17.4374,359.4212,15.9,360.5147ZM22.2692,339.2l-1.1306.9665,11.48,17.1474,1.5968-1.1253Zm22.7087-30.35,1.2869-.7062L36.5586,289.981l-1.8632,1.0238ZM81.904,250.185l1.307-.7081q-3.6-7.9155-7.201-15.831l-2.0185.9885Zm45.1452,450.7731-.321,1.2873,11.42,2.6994C136.1527,695.6712,130.3359,703.2753,127.0492,700.9581ZM19.7107,350.1205l-.871.7687q6.1138,8.6332,12.2278,17.2666l1.285-.9343Q26.0317,358.6711,19.7107,350.1205Zm21.2886-67.3653-1.2966,1.0033,10.3854,16.1871,1.1244-.7292Z" transform="translate(-1 -1.0502)"/><path class="cls-1" d="M179.0163,396.1244c2.6451-7.3632,5.1393-14.3121,7.6381-21.2594.8393-2.3334,1.66-4.6744,2.541-6.9919,3.9462-10.375,7.758-20.806,11.98-31.068,1.0279-2.4986,3.2263-4.6371,5.2256-6.5949,13.216-12.9416,26.9157-25.4158,39.6684-38.7948a298.6942,298.6942,0,0,0,24.264-29.7252c2.9086-3.9679,4.42-9.4291.2654-14.2873-6.037-7.0593-11.7032-14.4727-18.1546-21.1272-4.05-4.178-10.1814-4.87-15.5017-6.9505-10.9319-4.2755-21.217-1.4782-31.7349-.4247-9.7224.9738-19.3761,2.6335-29.3385,4.03.2547-.7584.273-1.4158.5512-1.5556,19.4438-9.7648,39.53-17.16,61.6827-17.6081a34.3437,34.3437,0,0,1,22.6889,7.3987c9.0671,7.07,18.2195,13.9538,23.1866,24.9295,1.9389,4.2842,6.8773,5.03,11.0465,2.532A23.1207,23.1207,0,0,1,299.12,237.01q17.2918-6.2371,34.5939-12.4457c5.9555-2.1225,9.0013-7.14,11.8738-12.1587.7607-1.3291.4677-3.6652-.0949-5.2757a157.1,157.1,0,0,0-6.8352-17.6067c-4.3781-8.907-6.4595-17.8-4.8058-27.8888,2.0976-12.7966,3.1893-25.741,9.3185-37.5062,6.9416-13.3243,17.4129-23.4911,29.4343-32.0611,3.2645-2.3273,7.6977-3.0153,11.6577-3.69-6.4425,5.5819-12.9162,11.1284-19.3209,16.7535-12.2256,10.7374-18.608,24.2894-19.903,40.4921-1.2772,15.979.2234,31.541,6.1594,46.4843a38.601,38.601,0,0,0,5.712,9.2377c1.6541,2.1108,4.3713,2.52,5.7963-.2057,4.159-7.9569,11.6016-12.296,18.5569-16.9889,52.2919-35.2828,107.804-64.2012,167.835-84.0437,29.9095-9.8863,59.7905-19.8713,89.8447-29.3,7.8333-2.4575,16.2545-3.0845,24.4361-4.3569,2.0249-.3149,4.1683.1335,6.7882.2559-.5626,1.6169-.6721,2.6292-1.1955,3.3341-14.6727,19.7623-28.2669,40.4681-44.3755,58.9858-20.6445,23.7321-42.8391,46.1852-65.2633,68.2785-19.19,18.9075-34.8573,39.8-46.8465,64.0474-8.2823,16.75-19.3637,32.1565-29.729,47.8093-2.737,4.1331-7.4789,6.9283-11.2493,10.3932A32.2824,32.2824,0,0,0,468.2,323.13c-3.0529,3.807-5.5085,8.29-9.1473,11.3968-17.2984,14.7679-38.5146,21.83-59.4324,29.4432a112.0384,112.0384,0,0,0-15.0414,6.4565c-11.1489,6.0311-14.6246,16.0451-11.3228,30.3547,1.5547,6.7378,3.1831,13.0289,9.4311,17.948,8.8928,7.0014,18.1365,6.9074,28.51,5.2066.0992,2.6171.8541,5.0071,4.8553,4.6626.8248-.0709,2.7349,2.5869,2.6424,3.88-.1713,2.3935-1.4125,4.7223-2.2772,7.0525-6.1159,16.4811-12.95,32.7362-18.199,49.4881-6.484,20.6925-5.3184,42.0075-3.1657,63.3777a217.7056,217.7056,0,0,1,.5521,36.4018c-1.2038,17.7369-2.6527,35.5845-5.9374,53.0193-3.7288,19.792-9.3379,39.2524-14.7082,58.6972a36.36,36.36,0,0,1-7.7182,14.2671c-5.2028,5.7527-10.9578,11.8372-17.7626,15.1023-8.7987,4.2219-18.7257,6.5559-28.418,8.3329-11.7069,2.1461-23.658,3.0671-35.538,4.1324-12.5291,1.1234-25.2376,3.3747-37.619,2.291a115.2212,115.2212,0,0,1-53.1343-18.2972,39.57,39.57,0,0,0-8.5443-3.986c-29.6971-10.3329-46.6228-31.7208-53.6826-61.717-3.9256-16.68-8.4958-33.4621-6.3092-50.6883,2.0832-16.4118,4.1347-33.6029,13.3126-47.5307,6.9561-10.5562,10.3258-21.69,12.9439-33.3484,2.4947-11.1091,3.3938-22.5669,5.5828-33.7564,4.7747-24.407,9.9074-48.7443,14.9456-73.0994a62.4574,62.4574,0,0,1,1.9812-6.6694c2.95-9.0258.8577-7.9878,10.3373-7.3018,8.9138.6451,17.7461,2.4955,26.5926,3.948,3.1532.5177,4.4231,2.0346,3.1151,5.6008q-5.049,13.7649-9.3957,27.7837c-1.9206,6.2217-.1182,10.5969,4.3063,12.22,4.5484,1.6683,10.5772-.8011,13.0171-5.6266,2.3185-4.5852,4.3118-9.3342,6.48-13.9962a8.1519,8.1519,0,0,1,7.767-5.1761c8.8616-.286,10.5873-3.0518,7.38-11.2207-.2366-.6028-.4085-1.2309-.6894-2.0882,4.4354-2.46,4.5349-6.4086,4.0073-10.7828a9.3592,9.3592,0,0,1,1.2442-4.88c1.7092-3.4279,3.8684-6.6348,5.5224-10.0859,2.0732-4.3255,3.4654-9.0042,5.78-13.182,6.9912-12.6177,14.2865-25.0668,21.4129-37.4938,20.25,8.6333,37.3891,2.4606,52.7875-10.48,9.308-7.8226,17.8761-16.4481,20.9656-29.05,5.6809-23.1724-5.9846-45.3395-27.2339-51.1651a35.6452,35.6452,0,0,0-21.6428.4313c-28.0143,9.9537-43.7581,33.3869-39.0276,62.64,1.1426,7.0657.8313,13.2778-3.0138,19.4766-9.8949,15.9521-19.28,32.224-29.3583,48.0569-4.0714,6.3964-9.3756,12.0156-14.23,17.8966a3.7951,3.7951,0,0,1-2.8769,1.3C205.6451,400.4545,193.0666,398.39,179.0163,396.1244Zm196.23-134.9191c-.11-3.579-3.9824-7.2689-7.6254-7.2657-3.4222.003-5.8109,2.8726-5.6552,6.7941.1631,4.1079,3.1514,7.6747,6.4271,7.6713A7.2335,7.2335,0,0,0,375.2461,261.2053Z" transform="translate(-1 -1.0502)"/><path class="cls-1" d="M217.558,226.85c17.2621,1.7951,32.6992,4.9817,41.8791,20.9155,3.1084,5.3952,3.42,13.0741-.5759,18.0162a240.3627,240.3627,0,0,1-35.6958,35.3819c-9.7709,7.9383-18.5033,17.1926-27.3778,26.1774a9.3042,9.3042,0,0,1-10.9863,2.1379,308.9582,308.9582,0,0,1-28.4882-15.0141c-4.8348-2.8828-6.61-8.3187-8.2881-13.7326-3.9825-12.8519-4.6287-25.5334,2.2375-37.3846a67.9357,67.9357,0,0,1,13.791-17.236c12.374-10.7078,27.6234-15.4519,43.5511-18.0709C211.2,227.4493,214.8464,227.1674,217.558,226.85Z" transform="translate(-1 -1.0502)"/><path class="cls-1" d="M436.9361,141.2349c-6.9568,4.0725-15.1447,8.462-22.9137,13.4978-16.2991,10.5648-32.3451,21.52-48.6129,32.1339a5.7585,5.7585,0,0,1-5.0186.0321,8.8581,8.8581,0,0,1-3.598-4.5337c-5.717-16.8112-9.8251-34.3-1.3459-50.86,9.2332-18.0317,21.9582-33.1773,43.9853-36.9265,10.8793-1.8517,18.9429,2.64,24.4637,10.7457,4.253,6.2449,6.3637,14.0141,9.0264,21.2528C434.5851,131.0974,435.5034,135.8912,436.9361,141.2349Z" transform="translate(-1 -1.0502)"/><path class="cls-1" d="M137.13,536.5967c-7.01-8.7072-15.5939-16.4884-15.6473-29.0407a7.5351,7.5351,0,0,0-1.6976-4.5131c-9.5792-11.1-10.9179-24.326-9.4491-38.0077a155.0289,155.0289,0,0,1,4.7354-25.8811c3.9624-13.9,12.2233-24.0593,27.283-27.3341,7.214-1.5687,14.2888-3.7776,22.0463-5.8631C155.6506,450.3876,150.9412,494.3307,137.13,536.5967Z" transform="translate(-1 -1.0502)"/><path class="cls-1" d="M338.7357,295.089c-.1241,16.5941-11.0686,28.8354-27.7934,30.801a55.353,55.353,0,0,1-11.4136.1276c-10.0979-.9217-14.8564-5.6395-16.272-15.6117-1.8984-13.3742,6.3355-30.3093,18.0049-37.0413,8.1153-4.6816,16.2118-4.2121,24.1306.3548C333.9428,278.6508,338.7991,286.6187,338.7357,295.089Zm-33.2711-8.201c-6.6274-.046-10.3757,4.0869-10.4911,11.5675-.1118,7.25,6.4156,15.613,12.158,15.5775,5.9507-.0367,11.9967-8.2134,11.9908-16.2167C319.1172,290.7755,314.3357,286.95,305.4646,286.888Z" transform="translate(-1 -1.0502)"/><path class="cls-1" d="M39.5524,621.6528c12.2174-.8379,36.1529,10.4906,40.7054,19.4562-2.7137-.6123-4.8027-1.0989-6.8986-1.5538-7.2715-1.5781-14.5181-3.2891-21.8261-4.6762C44.2753,633.5015,42.4357,627.6526,39.5524,621.6528Z" transform="translate(-1 -1.0502)"/><path class="cls-1" d="M48.1636,510.29c-3.438-2.6476-6.31-5.0309-9.3541-7.1695-7.31-5.1353-14.7164-10.1329-22.0376-15.2522a5.15,5.15,0,0,1-2.1913-2.5235,143.38,143.38,0,0,1-3.0969-20.0934c13.8815,8.64,25.392,19.4454,35.6173,31.9651a37.4518,37.4518,0,0,1-4.0175-2.6525c-7.3355-6.2729-14.4957-12.7585-21.9929-18.8292-1.8966-1.5357-4.807-1.82-7.2516-2.6785,1.0976,2.35,1.6416,5.2778,3.3879,6.95,7.8126,7.4827,15.9236,14.6579,24.0452,21.81a9.407,9.407,0,0,0,4.8056,2.2523C50.31,504.5545,49.1606,506.8324,48.1636,510.29Z" transform="translate(-1 -1.0502)"/><path class="cls-1" d="M67.1135,623.4374c-3.9576-1.6306-6.8931-2.949-9.9072-4.0529-3.4163-1.2511-6.8376-2.9824-10.3714-3.3262C36.2586,615.03,33.03,607.2712,29.5685,598.0574c2.4508.9577,4.1923,1.52,5.8308,2.2989,7.47,3.5507,14.9088,7.1653,22.3618,10.7511C62.562,613.4173,64.7885,617.6724,67.1135,623.4374Z" transform="translate(-1 -1.0502)"/><path class="cls-1" d="M121.4829,670.1535c-10.7024,7.1548-44.4,5.3555-47.9-2.6259Z" transform="translate(-1 -1.0502)"/><path class="cls-1" d="M10.0547,429.0916c12.4486,14.0288,27.5531,25.9416,35.2639,43.7453l-1.0254.8509c-4.7171-5.4756-9.2682-11.1059-14.1938-16.387-5.9867-6.4188-12.4978-12.3569-18.3372-18.9-1.9443-2.1785-2.5171-5.5813-3.7168-8.4244Z" transform="translate(-1 -1.0502)"/><path class="cls-1" d="M60.4265,654.836c17.4842.26,33.6486,2.2262,49.0385,8.4661-13.5827-.7668-27.1619-1.6069-40.75-2.2527C64.9631,660.8712,62.5275,659.2849,60.4265,654.836Z" transform="translate(-1 -1.0502)"/><path class="cls-1" d="M55.5537,594.8117c-9.627-6.8381-18.671-12.9849-27.3356-19.6266-1.9721-1.5118-2.6316-4.736-4.4918-8.322C34.6855,570.4691,55.8154,588.9,55.5537,594.8117Z" transform="translate(-1 -1.0502)"/><path class="cls-1" d="M240.2117,411.8784a32.0426,32.0426,0,0,1-4.6693,2.11c-5.1551,1.2522-5.956,3.5823-2.3517,7.6788.8325.9462,2.1955,1.4255,3.3144,2.12l-1.2221,1.849L223.36,421.378c3.8206-8.1658,7.0339-15.6809,10.8178-22.8966,2.5836-4.9267,4.7135-5.1043,10.1072-1.6609-2.4594,1.5048-4.6429,2.91-6.8912,4.2023-5.0419,2.8984-5.1741,4.6916-.5376,8.2373C237.6111,409.8374,238.3551,410.4288,240.2117,411.8784Z" transform="translate(-1 -1.0502)"/><path class="cls-1" d="M10.4646,458.0637l-.8867-10.5685,1.6793-1.0253,35.6566,37.686-.8365.9111c-4.588-4.1324-9.1377-8.3084-13.7749-12.3848-4.4975-3.9538-8.9378-8-13.7061-11.6048C16.7219,459.66,14.0259,459.33,10.4646,458.0637Z" transform="translate(-1 -1.0502)"/><path class="cls-1" d="M35.724,346.3678c-4.1092-5.2809-7.8171-9.9416-11.373-14.7156a4.4672,4.4672,0,0,1-.7819-3.1976c1.03-4.804,2.2966-9.5573,3.818-15.6939l12.8259,17.427-1.1593,1.0241-9.6975-9.6524-1.2671.8658c-.1751,5.8712,2.7051,10.8372,6.73,14.6971C37.9739,340.1477,37.5735,342.5372,35.724,346.3678Z" transform="translate(-1 -1.0502)"/><path class="cls-1" d="M89.286,681.23l39.4966-2.2185q.1816,1.3681.3632,2.7361c-5.67,1.0694-11.3252,2.2215-17.0136,3.1791-3.7616.6331-7.6482.6623-11.3385,1.5471-4.84,1.1606-8.2011-1.0269-11.56-3.6423Z" transform="translate(-1 -1.0502)"/><path class="cls-1" d="M10.3659,410.6646c9.6354,11.6978,19.053,22.18,26.1218,34.4019l-1.5108,1.25q-4.987-5.4033-9.9715-10.8091-6.4125-6.9989-12.7932-14.0269C9.7342,418.7545,8.507,415.7352,10.3659,410.6646Z" transform="translate(-1 -1.0502)"/><path class="cls-1" d="M53.002,576.4818c-12.0065-4.9456-28.52-19.4143-28.7464-25.1941C34.7045,559.5852,46.7161,564.715,53.002,576.4818Z" transform="translate(-1 -1.0502)"/><path class="cls-1" d="M89.0478,650.6718c-10.2071-1.044-20.42-2.0309-30.6183-3.1583-4.4935-.4968-6.43-3.9494-9.224-8.4l40.21,10.13Z" transform="translate(-1 -1.0502)"/><path class="cls-1" d="M47.8585,523.0233l-31.1192-27.516.8124-1.1478c2.1509,1.41,4.3268,2.783,6.4462,4.2387,2.3281,1.5991,4.6635,3.1982,6.8863,4.9371,2.2263,1.7417,4.2954,3.6826,6.4728,5.4886,3.5712,2.9622,7.2455,5.8054,10.7169,8.8789.9407.8328,1.3088,2.3123,1.94,3.4951Z" transform="translate(-1 -1.0502)"/><path class="cls-1" d="M48.5784,536.3308c-2.1641-1.8884-4.0536-3.4243-5.8153-5.0949-5.9179-5.6122-11.7066-11.3647-17.7419-16.8464-1.4219-1.2914-3.76-1.52-5.4066-2.6367-1.1531-.7815-1.8474-2.24-3.53-4.4039C26.7374,510.5434,48.8515,530.4285,48.5784,536.3308Z" transform="translate(-1 -1.0502)"/><path class="cls-1" d="M108.5145,692.7139c9.581-.9164,17.5055-5.8092,27.2286-2.1219C128.8825,695.4061,113.5337,696.9719,108.5145,692.7139Z" transform="translate(-1 -1.0502)"/><path class="cls-1" d="M91.249,243.2472c-6.3942-5.9084-9.5594-16.8154-6.6269-21.9243C88.6106,223.3257,92.7091,236.375,91.249,243.2472Z" transform="translate(-1 -1.0502)"/><path class="cls-1" d="M19.4592,523.0088c7.2668,2.0144,27.8436,21.2881,30.53,28.2112Z" transform="translate(-1 -1.0502)"/><path class="cls-1" d="M48.2765,598.7413c-7.7826-3.9723-17.667-4.6145-22.0538-13.9671C34.73,587.5989,42.4786,591.6245,48.2765,598.7413Z" transform="translate(-1 -1.0502)"/><path class="cls-1" d="M68.8028,271.8035c-3.8251-4.6572-7.8862-9.1527-11.28-14.1054-.6949-1.014,1.1106-3.7414,2.5061-5.6476,4.3665,6.11,9.67,11.3236,10.1519,18.8625Z" transform="translate(-1 -1.0502)"/><path class="cls-1" d="M13.2347,383.9447c6.56,9.1027,12.57,17.4422,18.58,25.7817l-1.6,1.2171c-3.6914-4.5617-7.331-9.1667-11.1016-13.662a17.9328,17.9328,0,0,0-4.64-4.4081C10.9783,390.9552,10.9574,388.5155,13.2347,383.9447Z" transform="translate(-1 -1.0502)"/><path class="cls-1" d="M46.7265,274.0192c10.9589,5.1434,14.5914,12.2167,9.4243,17.8736C52.9176,285.7608,49.8221,279.89,46.7265,274.0192Z" transform="translate(-1 -1.0502)"/><path class="cls-1" d="M22.07,534.9494,43.072,555.5636C35.34,554.0519,22.1692,541.1216,22.07,534.9494Z" transform="translate(-1 -1.0502)"/><path class="cls-1" d="M13.0969,372.3885c6.7611,2.7514,17.8083,18.6688,17.39,24.2392C24.3376,388.0562,18.7172,380.2224,13.0969,372.3885Z" transform="translate(-1 -1.0502)"/><path class="cls-1" d="M31.0978,426.4287,9.9965,401.3648l2.2557-1.8477q10.1514,12.8016,20.3029,25.603Z" transform="translate(-1 -1.0502)"/><path class="cls-1" d="M31.9259,300.5826,43.829,319.83C37.484,317.3418,30.7693,307.0464,31.9259,300.5826Z" transform="translate(-1 -1.0502)"/><path class="cls-1" d="M460.7947,346.5475l7.2242-5.2532c2.3821,3.5372,4.38,6.8865.3519,9.62C463.7948,354.0205,463.57,348.4823,460.7947,346.5475Z" transform="translate(-1 -1.0502)"/><path class="cls-1" d="M435.5527,361.2608c1.2252,1.812,2.638,3.5683,2.4818,3.7212-1.8888,1.8481-3.8349,3.8465-6.174,4.9-.7128.3209-2.6738-2.13-4.0632-3.3121Z" transform="translate(-1 -1.0502)"/><path class="cls-1" d="M69.2538,242.9942q4.1055,8.4789,8.2109,16.9578C71.6191,256.8683,66.7485,247.53,69.2538,242.9942Z" transform="translate(-1 -1.0502)"/><path class="cls-1" d="M31.173,381.5791,15.9,360.5147l1.537-1.0935L32.6529,380.64Z" transform="translate(-1 -1.0502)"/><path class="cls-1" d="M22.2692,339.2l11.9466,16.9886-1.5968,1.1253-11.48-17.1474Z" transform="translate(-1 -1.0502)"/><path class="cls-1" d="M44.9779,308.85,34.6954,291.0048l1.8632-1.0238,9.7062,18.1623Z" transform="translate(-1 -1.0502)"/><path class="cls-1" d="M81.904,250.185l-7.9125-15.5506,2.0185-.9885q3.6006,7.9155,7.201,15.831Z" transform="translate(-1 -1.0502)"/><path class="cls-1" d="M127.0492,700.9581c3.2867,2.3172,9.1035-5.2869,11.0995,3.9867l-11.42-2.6994Z" transform="translate(-1 -1.0502)"/><path class="cls-1" d="M19.7107,350.1205q6.3209,8.5506,12.6418,17.101l-1.285.9343q-6.1139-8.6334-12.2278-17.2666Z" transform="translate(-1 -1.0502)"/><path class="cls-1" d="M40.9993,282.7552l10.2132,16.4612-1.1244.7292L39.7027,283.7585Z" transform="translate(-1 -1.0502)"/><path d="M375.2461,261.2053a7.2335,7.2335,0,0,1-6.8535,7.2c-3.2757.0034-6.264-3.5634-6.4271-7.6713-.1557-3.9215,2.233-6.7911,5.6552-6.7941C371.2637,253.9364,375.1363,257.6263,375.2461,261.2053Z" transform="translate(-1 -1.0502)"/><path d="M305.4646,286.888c8.8711.0616,13.6526,3.8875,13.6577,10.9283.0059,8.0033-6.04,16.18-11.9908,16.2167-5.7424.0355-12.27-8.3278-12.158-15.5775C295.0889,290.9749,298.8372,286.842,305.4646,286.888Z" transform="translate(-1 -1.0502)"/></svg>